<svg id="Layer_1" data-name="Layer 1" xmlns="http://www.w3.org/2000/svg" width="3.396cm" height="0.536cm" viewBox="0 0 96.252 15.194"><title>logo</title><path d="M25.527,14.391c.311.572.289,1.52-.668,3.021-1.38,2.152-3.829,5.963-5.454,9.2-.09.2-.178.217-.357.039-.311-.3-.578-.987-.089-2.192a57.418,57.418,0,0,1,6.034-10.089C25.193,14.114,25.393,14.154,25.527,14.391Z" transform="translate(-18.689 -13.531)"/><path d="M29.645,18.794a1.387,1.387,0,0,1,.868,2.093c-.468.868-1.558,2.33-2.07,3.356-.579,1.146-.445,2.073.356,2.034.912-.04,2-1.342,2.849-2.725.112-.177.268-.177.379-.02.156.218.111.672-.2,1.244a4.163,4.163,0,0,1-3.3,2.113c-1.892,0-2.338-1.224-1.692-2.942.734-1.935,2.694-4.028,2.293-4.186-.223-.079-1.514.474-2.939,1.856a19.268,19.268,0,0,0-3.25,5.015c-.089.178-.223.257-.423.079-.445-.395-.579-1.046-.223-2.033a30.389,30.389,0,0,1,3.562-5.825c.156-.217.334-.2.468,0a2.1,2.1,0,0,1,.067,1.876C27.4,19.781,28.91,18.7,29.645,18.794Z" transform="translate(-18.689 -13.531)"/><path d="M37.413,18.557a1.4,1.4,0,0,1,1.826.869,1.728,1.728,0,0,1-.468,2.31,7.5,7.5,0,0,1-3.094,1.6c.089,1.619.712,2.745,1.558,2.824.912.078,2.137-1.442,2.805-2.666.134-.237.334-.257.445-.02a1.355,1.355,0,0,1-.267,1.205A3.94,3.94,0,0,1,36.9,26.751c-1.558-.02-2.872-1.146-2.827-3.811,0-.355.044-.415.467-.533,2.761-.809,4.23-2.527,3.9-3.041-.245-.355-1.224-.138-2.4.672-1.67,1.125-2.672,2.862-4.386,6.5-.067.157-.245.2-.4.039-.333-.336-.445-.968-.022-2.172a58.849,58.849,0,0,1,6.3-10.682c.2-.237.423-.257.557-.019.334.592.289,1.382-.645,2.823-.535.81-1.4,2.192-2,3.159A5.529,5.529,0,0,1,37.413,18.557Z" transform="translate(-18.689 -13.531)"/><path d="M42.755,19.9a2.051,2.051,0,0,1,.8-1.52c.489-.395,1-.474,1.2-.3.222.2.111.415-.178.869-.089.118-.156.236-.245.375-.156,1.817.267,3.357.2,4.719a2.33,2.33,0,0,1-1,2.073,5.38,5.38,0,0,0,2.984-2.744.228.228,0,0,1,.422,0,1.622,1.622,0,0,1-.311,1.3,4.792,4.792,0,0,1-3.941,2.172,3.428,3.428,0,0,1-3.294-1.481,2.167,2.167,0,0,1,.289-2.745c.267-.2.445-.118.467.2.023.157.023.316.045.473A39.256,39.256,0,0,0,42.755,19.9ZM40.4,24.362c.333,1.145.979,1.954,1.713,1.757,1.025-.276.691-3.376.6-4.956A34.706,34.706,0,0,1,40.4,24.362Z" transform="translate(-18.689 -13.531)"/><path d="M58.96,18.912q.3-.385.535-.118a1.943,1.943,0,0,1-.023,2.191c-.49.889-1.6,2.37-2.137,3.416-.556,1.106-.579,1.955.178,1.915.913-.039,2.137-1.381,2.917-2.744.111-.178.267-.2.356-.02a1.593,1.593,0,0,1-.2,1.224,3.99,3.99,0,0,1-3.2,2.113c-1.2-.059-1.826-.691-1.826-1.619a3.989,3.989,0,0,1-2.783,1.54c-2.07,0-2.493-2.507-.646-4.9,1.8-2.331,3.563-3.219,4.676-3.219a1.26,1.26,0,0,1,1.358,1.422A13.651,13.651,0,0,1,58.96,18.912Zm-1.781.81c-.712-.059-2.337,1.224-3.562,2.981-1.179,1.7-1.469,3.436-.6,3.456.913.019,2.07-1.244,3.206-2.982C57.625,21.005,57.825,19.781,57.179,19.722Z" transform="translate(-18.689 -13.531)"/><path d="M66.818,18.794a1.387,1.387,0,0,1,.869,2.093c-.468.868-1.559,2.33-2.071,3.356-.579,1.146-.445,2.073.356,2.034.913-.04,2-1.342,2.85-2.725.111-.177.267-.177.378-.02.156.218.112.672-.2,1.244a4.163,4.163,0,0,1-3.3,2.113c-1.892,0-2.337-1.224-1.692-2.942.735-1.935,2.694-4.028,2.293-4.186-.223-.079-1.514.474-2.938,1.856a19.244,19.244,0,0,0-3.251,5.015c-.089.178-.222.257-.423.079-.445-.395-.579-1.046-.222-2.033a30.287,30.287,0,0,1,3.562-5.825c.155-.217.334-.2.467,0a2.1,2.1,0,0,1,.067,1.876C64.57,19.781,66.083,18.7,66.818,18.794Z" transform="translate(-18.689 -13.531)"/><path d="M74.854,26.316c.913-.039,2.115-1.362,2.894-2.724.111-.178.267-.178.356-.02a1.551,1.551,0,0,1-.178,1.224,3.98,3.98,0,0,1-3.206,2.073c-1.2-.059-1.8-.651-1.8-1.579a4.04,4.04,0,0,1-2.761,1.52c-2.07,0-2.471-2.507-.645-4.877,1.758-2.29,3.539-3.179,4.652-3.179A1.234,1.234,0,0,1,75.5,20.1c1.2-2.034,2.9-4.719,3.7-5.726.223-.277.424-.257.535,0,.312.651.245,1.5-.69,2.982-1.068,1.7-3.206,4.955-4.319,7.048C74.119,25.546,74.1,26.356,74.854,26.316ZM70.98,22.723c-1.2,1.7-1.447,3.416-.579,3.436.891.019,2.093-1.146,3.139-2.942,1.291-2.192,1.625-3.436.98-3.456C73.829,19.741,72.2,20.985,70.98,22.723Z" transform="translate(-18.689 -13.531)"/><path d="M85.56,15.654c-.112-.217-.067-.336.222-.355,1.848-.178,3.518-1.007,5.031-1.067a2.423,2.423,0,0,1,2.65,1.64,3.443,3.443,0,0,1-.668,3.376,10.267,10.267,0,0,1-6.434,3.514,2.271,2.271,0,0,1-1.381-.2c-.623,1.086-1.291,2.389-2.07,4.028-.089.2-.2.2-.356.059-.312-.3-.534-.888-.2-1.955a39.556,39.556,0,0,1,4.608-8.214A1.654,1.654,0,0,1,85.56,15.654Zm6.946.395c-.468-1.086-2.694-.059-4.163.316a4.131,4.131,0,0,1-.847,2.172c-.578.908-1.2,1.817-1.87,2.922C90.613,20.63,93.106,17.431,92.506,16.049Z" transform="translate(-18.689 -13.531)"/><path d="M94.663,26.277c1.848.079,3.473-1.5,4.431-2.8a.2.2,0,0,1,.378.02,1.467,1.467,0,0,1-.378,1.224A5.856,5.856,0,0,1,94.73,26.85c-2.828.039-3.807-2.429-2.36-4.976s3.718-3.574,4.831-3A4.035,4.035,0,0,1,98.515,19.9c.4.474.222,1.679-.712,2.686a2.917,2.917,0,0,1-4.142.572C92.949,24.974,93.483,26.218,94.663,26.277Zm1.848-4.541c.713-.83,1.2-1.856.89-2.073-.467-.336-2.315.849-3.361,2.724-.067.119-.134.237-.179.336C94.953,23.335,95.865,22.486,96.511,21.736Z" transform="translate(-18.689 -13.531)"/><path d="M105.549,18.794a1.387,1.387,0,0,1,.868,2.093c-.468.868-1.559,2.33-2.07,3.356-.579,1.146-.446,2.073.356,2.034.912-.04,2-1.342,2.85-2.725.111-.177.266-.177.378-.02.156.218.111.672-.2,1.244a4.161,4.161,0,0,1-3.294,2.113c-1.893,0-2.338-1.224-1.693-2.942.736-1.935,2.7-4.028,2.294-4.186-.223-.079-1.515.474-2.939,1.856a19.242,19.242,0,0,0-3.25,5.015c-.089.178-.223.257-.423.079-.446-.395-.579-1.046-.223-2.033a30.287,30.287,0,0,1,3.562-5.825c.156-.217.334-.2.467,0a2.105,2.105,0,0,1,.068,1.876C103.3,19.781,104.814,18.7,105.549,18.794Z" transform="translate(-18.689 -13.531)"/><path d="M110.713,19.9a2.054,2.054,0,0,1,.8-1.52c.49-.395,1-.474,1.2-.3.222.2.111.415-.178.869-.089.118-.156.236-.245.375-.155,1.817.268,3.357.2,4.719a2.331,2.331,0,0,1-1,2.073,5.381,5.381,0,0,0,2.983-2.744.229.229,0,0,1,.423,0,1.62,1.62,0,0,1-.312,1.3,4.791,4.791,0,0,1-3.94,2.172,3.428,3.428,0,0,1-3.3-1.481,2.167,2.167,0,0,1,.29-2.745c.266-.2.445-.118.466.2.023.157.023.316.045.473A39.075,39.075,0,0,0,110.713,19.9Zm-2.36,4.463c.334,1.145.979,1.954,1.714,1.757,1.024-.276.69-3.376.6-4.956A34.723,34.723,0,0,1,108.353,24.362Z" transform="translate(-18.689 -13.531)"/><text x="-18.689" y="-13.531"></text></svg>